<?xml version="1.0" encoding="UTF-8"?>
<svg width="1280px" height="543px" viewBox="0 0 1280 543" version="1.1"
     xmlns="http://www.w3.org/2000/svg">
    <!-- Generator: Sketch 50.2 (55047) - http://www.bohemiancoding.com/sketch -->
    <title>stacks_queues</title>
    <desc>Created with Sketch.</desc>
    <defs></defs>
    <g id="stacks_queues" stroke="none" stroke-width="1" fill="none" fill-rule="evenodd">
        <g id="LIFO" transform="translate(34.000000, 12.000000)">
            <g id="S" transform="translate(32.000000, 118.000000)">
                <text id="Remove-(pop)" font-family="SFMono-Regular, SF Mono" font-size="48"
                      font-weight="normal" fill="#000000">
                    <tspan x="161" y="343">Remove (pop)</tspan>
                </text>
                <text id="Add-(push)" font-family="SFMono-Regular, SF Mono" font-size="48"
                      font-weight="normal" fill="#000000">
                    <tspan x="247" y="46">Add (push)</tspan>
                </text>
                <rect id="Rectangle-2-Copy" stroke="#979797" fill="#D8D8D8" x="0.5" y="125.5"
                      width="57" height="96"></rect>
                <rect id="Rectangle-2-Copy-2" stroke="#979797" fill="#D8D8D8" x="58.5" y="125.5"
                      width="57" height="96"></rect>
                <rect id="Rectangle-2-Copy-3" stroke="#979797" fill="#D8D8D8" x="116.5" y="125.5"
                      width="57" height="96"></rect>
                <rect id="Rectangle-2-Copy-4" stroke="#979797" fill="#D8D8D8" x="174.5" y="125.5"
                      width="57" height="96"></rect>
                <rect id="Rectangle-2-Copy-5" stroke="#979797" fill="#D8D8D8" x="232.5" y="125.5"
                      width="57" height="96"></rect>
                <text id="1" font-family="SFMono-Regular, SF Mono" font-size="48"
                      font-weight="normal" fill="#000000">
                    <tspan x="15" y="193">1</tspan>
                </text>
                <text id="2" font-family="SFMono-Regular, SF Mono" font-size="48"
                      font-weight="normal" fill="#000000">
                    <tspan x="73" y="193">2</tspan>
                </text>
                <text id="3" font-family="SFMono-Regular, SF Mono" font-size="48"
                      font-weight="normal" fill="#000000">
                    <tspan x="131" y="193">3</tspan>
                </text>
                <text id="4" font-family="SFMono-Regular, SF Mono" font-size="48"
                      font-weight="normal" fill="#000000">
                    <tspan x="189" y="193">4</tspan>
                </text>
                <text id="5" font-family="SFMono-Regular, SF Mono" font-size="48"
                      font-weight="normal" fill="#000000">
                    <tspan x="247" y="193">5</tspan>
                </text>
                <path d="M396.508878,67 L396.508878,128.5 C394.940879,137.390632 393.216364,143.334853 391.335332,146.332665 C389.454299,149.330476 385.411095,152.578298 379.20572,156.076132 L309,156.076132"
                      id="Line-6" stroke="#979797" stroke-width="5" stroke-dasharray="5"></path>
                <path d="M378.292505,185.216373 L378.292505,246.716373 C376.724507,255.607005 374.999991,261.551226 373.118959,264.549037 C371.237926,267.546849 367.194722,270.794671 360.989347,274.292505 L290.783627,274.292505"
                      id="Line-6-Copy" stroke="#979797" stroke-width="5" stroke-dasharray="5"
                      transform="translate(334.538066, 229.754439) rotate(-90.000000) translate(-334.538066, -229.754439) "></path>
                <polygon id="Triangle" fill="#9B9B9B"
                         transform="translate(302.000000, 155.500000) rotate(-90.000000) translate(-302.000000, -155.500000) "
                         points="302 143.5 311.5 167.5 292.5 167.5"></polygon>
                <polygon id="Triangle-Copy" fill="#9B9B9B"
                         transform="translate(379.500000, 286.000000) rotate(180.000000) translate(-379.500000, -286.000000) "
                         points="379.5 274 389 298 370 298"></polygon>
            </g>
            <text id="LIFO-(STACK)" font-family="SFMono-Regular, SF Mono" font-size="48"
                  font-weight="normal" fill="#4A90E2">
                <tspan x="0" y="46">LIFO (STACK)</tspan>
            </text>
        </g>
        <g id="FIFO" transform="translate(672.000000, 12.000000)">
            <g id="Q" transform="translate(3.000000, 118.000000)">
                <text id="Remove-(head)" font-family="SFMono-Regular, SF Mono" font-size="48"
                      font-weight="normal" fill="#000000">
                    <tspan x="209" y="343">Remove (head)</tspan>
                </text>
                <text id="Add-(tail)" font-family="SFMono-Regular, SF Mono" font-size="48"
                      font-weight="normal" fill="#000000">
                    <tspan x="0" y="46">Add (tail)</tspan>
                </text>
                <rect id="Rectangle-2-Copy" stroke="#979797" fill="#D8D8D8" x="180.5" y="125.5"
                      width="57" height="96"></rect>
                <rect id="Rectangle-2-Copy-2" stroke="#979797" fill="#D8D8D8" x="238.5" y="125.5"
                      width="57" height="96"></rect>
                <rect id="Rectangle-2-Copy-3" stroke="#979797" fill="#D8D8D8" x="296.5" y="125.5"
                      width="57" height="96"></rect>
                <rect id="Rectangle-2-Copy-4" stroke="#979797" fill="#D8D8D8" x="354.5" y="125.5"
                      width="57" height="96"></rect>
                <rect id="Rectangle-2-Copy-5" stroke="#979797" fill="#D8D8D8" x="412.5" y="125.5"
                      width="57" height="96"></rect>
                <text id="5" font-family="SFMono-Regular, SF Mono" font-size="48"
                      font-weight="normal" fill="#000000">
                    <tspan x="195" y="193">5</tspan>
                </text>
                <text id="4" font-family="SFMono-Regular, SF Mono" font-size="48"
                      font-weight="normal" fill="#000000">
                    <tspan x="253" y="193">4</tspan>
                </text>
                <text id="3" font-family="SFMono-Regular, SF Mono" font-size="48"
                      font-weight="normal" fill="#000000">
                    <tspan x="311" y="193">3</tspan>
                </text>
                <text id="2" font-family="SFMono-Regular, SF Mono" font-size="48"
                      font-weight="normal" fill="#000000">
                    <tspan x="369" y="193">2</tspan>
                </text>
                <text id="1" font-family="SFMono-Regular, SF Mono" font-size="48"
                      font-weight="normal" fill="#000000">
                    <tspan x="427" y="193">1</tspan>
                </text>
                <path d="M161.508878,62 L161.508878,139.379675 C159.940879,150.565922 158.216364,158.044978 156.335332,161.816842 C154.454299,165.588706 150.411095,169.675136 144.20572,174.076132 L74,174.076132"
                      id="Line-6-Copy-3" stroke="#979797" stroke-width="5" stroke-dasharray="5"
                      transform="translate(117.754439, 118.038066) scale(-1, 1) translate(-117.754439, -118.038066) "></path>
                <path d="M558.292505,175.216373 L558.292505,236.716373 C556.724507,245.607005 554.999991,251.551226 553.118959,254.549037 C551.237926,257.546849 547.194722,260.794671 540.989347,264.292505 L470.783627,264.292505"
                      id="Line-6-Copy-2" stroke="#979797" stroke-width="5" stroke-dasharray="5"
                      transform="translate(514.538066, 219.754439) rotate(-90.000000) translate(-514.538066, -219.754439) "></path>
                <polygon id="Triangle-Copy-3" fill="#9B9B9B"
                         transform="translate(166.000000, 173.500000) scale(-1, 1) rotate(-90.000000) translate(-166.000000, -173.500000) "
                         points="166 161.5 175.5 185.5 156.5 185.5"></polygon>
                <polygon id="Triangle-Copy-2" fill="#9B9B9B"
                         transform="translate(559.500000, 277.000000) rotate(180.000000) translate(-559.500000, -277.000000) "
                         points="559.5 265 569 289 550 289"></polygon>
            </g>
            <text id="FIFO-(QUEUE)" font-family="SFMono-Regular, SF Mono" font-size="48"
                  font-weight="normal" fill="#4A90E2">
                <tspan x="0" y="46">FIFO (QUEUE)</tspan>
            </text>
        </g>
        <path d="M638.5,162.5 L638.5,474.5" id="Line-5" stroke="#EDEDED" stroke-width="5"
              stroke-linecap="square"></path>
    </g>
</svg>